PathFileType	4	(X/Y/Z)	P:\Projects\LMB_grand_challenge_database\project_only\opensim\experimental_data\SixthCompetition/DM_ngait_og7_new.trc
DataRate	CameraRate	NumFrames	NumMarkers	Units	OrigDataRate	OrigDataStartFrame	OrigNumFrames
120	120	4	68	mm	120	78	314
Frame#	Time	Sternum			Neck			R_Shoulder			L_Shoulder			Xiphoid			Thoracic			R_Asis			L_Asis			R_Psis			L_Psis			Lumbar			R_Elbow			R_ElbowMedial			R_ShoulderAnterior			R_ShoulderPosterior			R_Wrist			R_Radius			R_Ulna			L_Elbow			L_ElbowMedial			L_ShoulderAnterior			L_ShoulderPosterior			L_Wrist			L_Ulna			L_Radius			L_Thigh_Superior			L_Thigh_Inferior			L_Thigh_Lateral			L_Knee_Lateral			L_Knee_Medial			L_Patella			L_Shank_Superior			L_Shank_Inferior			L_Shank_Lateral			L_Ankle_Lateral			L_Ankle_Medial			R_Thigh_Superior			R_Thigh_Inferior			R_Thigh_Lateral			R_Knee_Lateral			R_Knee_Medial			R_Patella			R_Shank_Superior			R_Shank_Inferior			R_Shank_Lateral			R_Ankle_Lateral			RankleMedial			R_Heel			R_Toe			R_Midfoot_Medial			R_Midfoot_Lateral			R_Hindfoot			R_Midfoot_Superior			R_ToeMedial			R_ToeLateral			L_Heel			L_Toe			L_Midfoot_Medial			L_Midfoot_Lateral			L_Hindfoot			L_Midfoot_Superior			L_ToeMedial			L_ToeLateral			Oglobal			Sacral			Xglobal			Yglobal			Zglobal			
		X1	Y1	Z1	X2	Y2	Z2	X3	Y3	Z3	X4	Y4	Z4	X5	Y5	Z5	X6	Y6	Z6	X7	Y7	Z7	X8	Y8	Z8	X9	Y9	Z9	X10	Y10	Z10	X11	Y11	Z11	X12	Y12	Z12	X13	Y13	Z13	X14	Y14	Z14	X15	Y15	Z15	X16	Y16	Z16	X17	Y17	Z17	X18	Y18	Z18	X19	Y19	Z19	X20	Y20	Z20	X21	Y21	Z21	X22	Y22	Z22	X23	Y23	Z23	X24	Y24	Z24	X25	Y25	Z25	X26	Y26	Z26	X27	Y27	Z27	X28	Y28	Z28	X29	Y29	Z29	X30	Y30	Z30	X31	Y31	Z31	X32	Y32	Z32	X33	Y33	Z33	X34	Y34	Z34	X35	Y35	Z35	X36	Y36	Z36	X37	Y37	Z37	X38	Y38	Z38	X39	Y39	Z39	X40	Y40	Z40	X41	Y41	Z41	X42	Y42	Z42	X43	Y43	Z43	X44	Y44	Z44	X45	Y45	Z45	X46	Y46	Z46	X47	Y47	Z47	X48	Y48	Z48	X49	Y49	Z49	X50	Y50	Z50	X51	Y51	Z51	X52	Y52	Z52	X53	Y53	Z53	X54	Y54	Z54	X55	Y55	Z55	X56	Y56	Z56	X57	Y57	Z57	X58	Y58	Z58	X59	Y59	Z59	X60	Y60	Z60	X61	Y61	Z61	X62	Y62	Z62	X63	Y63	Z63	X64	Y64	Z64	X65	Y65	Z65	X66	Y66	Z66	X67	Y67	Z67	X68	Y68	Z68	

79	1.408333	-380.745	1451.31	205.573	-213.192	1385.26	188.696	-264.877	1389.8	366.749	-310.692	1423.98	20.4184	-183.545	1217.15	181.946	-456.951	1261.82	186.627	-260.087	985.752	317.787	-249.98	980.85	38.7969	-459.485	1014.15	201.989	-456.519	1012.05	124.485	-459.683	1062.98	163.613	-282.675	1071.32	457.934	-0	0	0	-0	0	0	-0	0	0	-211.996	799.587	434.86	-214.573	810.343	390.905	-256.775	803.1130000000001	448.878	-256.523	1089	-75.6675	-0	0	0	-0	0	0	-0	0	0	-130.427	855.932	-26.7727	-168.694	850.917	-56.0123	-152.988	869.106	13.795	-290.959	803.828	2.70637	-234.357	586.265	14.6429	-198.224	682.019	38.0228	-0	0	0	-0	0	0	-197.165	472.921	57.1137	-317.683	467.558	12.1134	-540.3200000000001	321.819	34.6633	-397.781	348.248	81.6529	-0	0	0	-0	0	0	-324.201	795.16	336.61	-265.183	586.417	293.804	-187.601	664.787	260.952	-0	0	0	-0	0	0	-169.592	512.6950000000001	227.225	-295.38	394.498	296.34	-305.636	187.17	276.04	-228.93	310.03	215.656	-0	0	0	-0	0	0	-391.7	61.4457	211.603	-93.3356	54.6775	239.3	-165.67	32.0533	182.235	-187.966	29.0361	297.327	-296.76	27.6644	273.596	-229.188	119.452	231.371	-123.236	41.9888	193.478	-137.689	40.7837	284.211	-660.83	299.31	113.205	-515.314	54.4815	23.6999	-562.501	96.4545	94.5279	-591.607	132.008	-10.3284	-650.9880000000001	212.885	29.4466	-529.438	199.622	56.1114	-543.15	65.8775	74.38420000000001	-558.954	87.6768	-15.5152	-0	0	0	-458.002	1013.1	163.237	-200	0	0	-0	0	200	-0	200	0	
80	1.416667	-372.274	1452.73	206.98	-204.998	1386.57	188.883	-255.192	1391.35	367.273	-303.913	1425.17	21.2627	-175.398	1218.62	182.197	-448.593	1263.26	188.298	-251.552	987.201	318.951	-242.499	982.023	39.8073	-451.299	1015.68	203.785	-448.769	1013.61	125.998	-451.632	1064.53	165.397	-269.712	1073.06	458.865	-0	0	0	-0	0	0	-0	0	0	-197.219	802.02	434.48	-200.527	812.746	390.449	-241.688	804.913	449.208	-255.629	1089.61	-76.6818	-0	0	0	-0	0	0	-0	0	0	-132.155	854.898	-29.2241	-170.614	850.443	-58.2864	-154.909	867.852	11.4244	-281.109	805.9	3.09662	-220.355	589.365	14.3862	-185.632	685.653	38.4327	-0	0	0	-0	0	0	-180.927	476.897	56.9307	-301.692	469.627	12.3748	-521.914	320.696	35.7941	-379.598	349.161	82.4957	-0	0	0	-0	0	0	-317.553	796.0700000000001	337.22	-261.517	586.812	294.303	-183.208	664.141	261.274	-0	0	0	-0	0	0	-166.793	512.021	227.88	-293.956	394.782	296.963	-305.778	187.679	276.691	-227.577	309.848	216.03	-0	0	0	-0	0	0	-391.695	61.7883	211.766	-93.2574	54.6005	239.264	-165.789	32.2302	181.619	-187.769	28.6658	296.757	-296.279	27.6941	273.362	-229.149	119.433	231.358	-123.181	41.911	193.458	-137.542	40.572	284.017	-642.1	295.708	115.139	-492.428	55.7018	23.3665	-539.4450000000001	95.0998	95.4979	-569.822	130.256	-9.13181	-630.861	209.818	31.196	-508.902	199.109	57.2125	-519.551	65.021	75.59220000000001	-536.427	86.5091	-14.3685	-0	0	0	-450.034	1014.65	164.891	-200	0	0	-0	0	200	-0	200	0	
81	1.425	-363.875	1453.98	208.427	-196.749	1387.75	189.062	-245.753	1392.88	367.778	-297.432	1426.38	21.9258	-167.364	1219.84	182.412	-440.284	1264.44	189.984	-243.254	988.699	320.048	-234.279	983.484	40.4015	-443.057	1016.92	204.918	-440.385	1014.98	127.008	-443.443	1065.84	166.304	-257.041	1074.58	459.731	-0	0	0	-0	0	0	-0	0	0	-182.161	804.631	434.007	-186.42	815.188	389.985	-226.556	806.943	449.383	-254.999	1090.3	-77.5943	-0	0	0	-0	0	0	-0	0	0	-133.946	853.763	-31.7957	-172.599	849.974	-60.8413	-156.872	866.561	8.94966	-271.61	808.023	3.37749	-206.599	592.582	14.2881	-173.52	689.226	39.0434	-0	0	0	-0	0	0	-165.281	480.977	56.8971	-285.825	471.676	12.4403	-503.225	318.781	36.8213	-361.187	350.166	83.2411	-0	0	0	-0	0	0	-310.845	796.942	337.909	-257.368	587.127	294.087	-178.602	663.654	261.744	-0	0	0	-0	0	0	-164.352	511.205	228.275	-292.299	395.025	296.998	-305.452	187.943	276.847	-226.235	309.61	216.665	-0	0	0	-0	0	0	-391.677	61.9151	211.843	-93.1944	54.4665	239.313	-165.778	32.0046	181.994	-187.866	28.8216	297.122	-296.692	27.7047	273.649	-229.065	119.44	231.407	-123.225	41.977	193.363	-137.587	40.5516	284.037	-623.2	291.675	116.372	-467.261	54.3559	25.7414	-516.215	93.2842	97.3254	-547.432	127.413	-7.39722	-610.349	205.736	32.6294	-487.898	197.75	58.6279	-494.87	63.2394	77.4413	-513.035	84.5532	-12.5273	-0	0	0	-441.721	1015.95	165.963	-200	0	0	-0	0	200	-0	200	0	
82	1.433333	-355.479	1455.31	209.685	-188.517	1388.95	189.278	-236.387	1394.33	368.356	-290.602	1427.57	22.5266	-159.314	1221.19	182.786	-432.207	1265.79	191.557	-235.228	989.981	321.11	-226.435	984.799	41.1196	-435.057	1018.33	206.063	-432.396	1016.48	128.001	-435.454	1067.3	167.345	-244.454	1076.15	460.616	-0	0	0	-0	0	0	-0	0	0	-167.174	807.086	433.515	-172.14	817.76	389.682	-211.388	808.723	449.552	-254.346	1091.09	-78.3775	-0	0	0	-0	0	0	-0	0	0	-136.06	852.828	-34.6588	-175.054	849.721	-63.6804	-158.91	865.201	6.77534	-261.183	809.631	4.58933	-193.002	595.624	14.3307	-161.753	692.472	39.6935	-0	0	0	-0	0	0	-149.284	484.806	57.0879	-269.95	473.356	12.8424	-484.099	316.256	37.4952	-340.851	349.618	84.289	-0	0	0	-0	0	0	-304.026	797.8150000000001	338.829	-254.487	587.349	295.298	-174.274	663.072	261.898	-0	0	0	-0	0	0	-161.995	510.38	228.632	-290.469	395.017	297.164	-304.896	188.212	276.897	-225.14	309.809	216.712	-0	0	0	-0	0	0	-391.649	62.0889	211.892	-93.1041	54.3706	239.324	-165.8	31.9261	181.92	-187.835	28.723	297.058	-296.75	27.7239	273.623	-228.964	119.414	231.399	-123.137	41.8472	193.395	-137.488	40.4473	283.995	-604.135	286.61	116.916	-441.244	52.8589	28.4215	-491.719	91.08620000000001	99.5775	-523.726	123.506	-5.44923	-588.465	200.577	34.1583	-466.213	195.965	60.0651	-469.74	61.7309	80.1018	-487.881	81.3943	-10.0767	-0	0	0	-433.727	1017.4	167.032	-200	0	0	-0	0	200	-0	200	0	
